<svg width="179" height="243" viewBox="0 0 179 243" fill="none" xmlns="http://www.w3.org/2000/svg">
<rect x="0.5" y="0.5" width="178" height="242" rx="4.5" fill="#444444"/>
<circle cx="150" cy="210" r="20" fill="white" fill-opacity="0.3"/>
<path d="M153.7 203.155C155.2 202.655 156.3 203.455 156.9 204.255C157.4 204.055 158 203.855 158.6 203.655C158.6 204.455 158.1 205.055 157.8 205.255C158.5 205.455 159 204.855 159 204.855C158.9 205.755 158.1 206.555 157.6 206.755C157.4 213.055 154.8 217.155 148.7 217.055C148.2 217.055 148.8 217.055 148.3 217.055C148 217.055 144.6 216.655 144 215.255C146 215.455 147.4 214.855 148.1 214.155C147.3 213.855 145.7 213.755 145.5 211.355C145.8 211.555 146 211.655 146.6 211.555C145.5 210.755 144.3 210.055 144.4 208.055C144.7 208.355 145.3 208.555 145.6 208.455C145 208.255 143.8 205.355 144.8 203.855C146.4 205.555 148.1 207.255 151.1 207.355C151.3 205.255 152.1 203.855 153.7 203.155Z" fill="#444444"/>
<rect x="127" y="187" width="46" height="46" stroke="#AF4FFF" stroke-width="2"/>
<circle cx="90" cy="210" r="20" fill="white" fill-opacity="0.3"/>
<g clip-path="url(#clip0_11446_1558)">
<path d="M97.6671 206.675C97.5765 206.351 97.4 206.059 97.1564 205.828C96.9059 205.59 96.5989 205.42 96.2644 205.333C95.0124 205.003 89.9964 205.003 89.9964 205.003C87.9053 204.98 85.8147 205.084 83.7364 205.317C83.4019 205.409 83.0955 205.583 82.8444 205.823C82.5977 206.061 82.4191 206.353 82.3257 206.674C82.1015 207.882 81.9926 209.108 82.0004 210.337C81.9924 211.564 82.1011 212.79 82.3257 213.999C82.4171 214.319 82.5951 214.61 82.8424 214.845C83.0897 215.081 83.3977 215.251 83.7364 215.341C85.0051 215.67 89.9964 215.67 89.9964 215.67C92.0902 215.694 94.1835 215.589 96.2644 215.357C96.5989 215.27 96.9059 215.1 97.1564 214.862C97.3999 214.631 97.5762 214.338 97.6664 214.015C97.8965 212.808 98.0083 211.581 98.0004 210.352C98.0177 209.118 97.906 207.885 97.6671 206.674V206.675ZM88.4017 212.619V208.055L92.5751 210.337L88.4017 212.619Z" fill="#444444"/>
</g>
<rect x="67" y="187" width="46" height="46" stroke="#AF4FFF" stroke-width="2"/>
<circle cx="30" cy="210" r="20" fill="white" fill-opacity="0.3"/>
<g clip-path="url(#clip1_11446_1558)">
<path d="M35.4431 204.074L23.6231 208.632C22.8164 208.956 22.8211 209.406 23.4751 209.606L26.5097 210.553L33.5311 206.123C33.8631 205.921 34.1664 206.03 33.9171 206.251L28.2284 211.385H28.2271L28.2284 211.386L28.0191 214.514C28.3257 214.514 28.4611 214.373 28.6331 214.207L30.1071 212.774L33.1731 215.038C33.7384 215.35 34.1444 215.19 34.2851 214.515L36.2977 205.03C36.5037 204.204 35.9824 203.83 35.4431 204.074Z" fill="#444444"/>
</g>
<rect x="7" y="187" width="46" height="46" stroke="#AF4FFF" stroke-width="2"/>
<circle cx="150" cy="150" r="20" fill="#FFC700"/>
<path opacity="0.3" d="M152.7 143.155C154.2 142.655 155.3 143.455 155.9 144.255C156.4 144.055 157 143.855 157.6 143.655C157.6 144.455 157.1 145.055 156.8 145.255C157.5 145.455 158 144.855 158 144.855C157.9 145.755 157.1 146.555 156.6 146.755C156.4 153.055 153.8 157.155 147.7 157.055C147.2 157.055 147.8 157.055 147.3 157.055C147 157.055 143.6 156.655 143 155.255C145 155.455 146.4 154.855 147.1 154.155C146.3 153.855 144.7 153.755 144.5 151.355C144.8 151.555 145 151.655 145.6 151.555C144.5 150.755 143.3 150.055 143.4 148.055C143.7 148.355 144.3 148.555 144.6 148.455C144 148.255 142.8 145.355 143.8 143.855C145.4 145.555 147.1 147.255 150.1 147.355C150.3 145.255 151.1 143.855 152.7 143.155Z" fill="#444444"/>
<circle cx="90" cy="150" r="20" fill="#FFC700"/>
<g opacity="0.3" clip-path="url(#clip2_11446_1558)">
<path d="M97.6671 146.675C97.5765 146.351 97.4 146.059 97.1564 145.828C96.9059 145.59 96.5989 145.42 96.2644 145.333C95.0124 145.003 89.9964 145.003 89.9964 145.003C87.9053 144.98 85.8147 145.084 83.7364 145.317C83.4019 145.409 83.0955 145.583 82.8444 145.823C82.5977 146.061 82.4191 146.353 82.3257 146.674C82.1015 147.882 81.9926 149.108 82.0004 150.337C81.9924 151.564 82.1011 152.79 82.3257 153.999C82.4171 154.319 82.5951 154.61 82.8424 154.845C83.0897 155.081 83.3977 155.251 83.7364 155.341C85.0051 155.67 89.9964 155.67 89.9964 155.67C92.0902 155.694 94.1835 155.589 96.2644 155.357C96.5989 155.27 96.9059 155.1 97.1564 154.862C97.3999 154.631 97.5762 154.338 97.6664 154.015C97.8965 152.808 98.0083 151.581 98.0004 150.352C98.0177 149.118 97.906 147.885 97.6671 146.674V146.675ZM88.4017 152.619V148.055L92.5751 150.337L88.4017 152.619Z" fill="#444444"/>
</g>
<circle cx="30" cy="150" r="20" fill="#FFC700"/>
<g opacity="0.3" clip-path="url(#clip3_11446_1558)">
<path d="M35.4431 144.074L23.6231 148.632C22.8164 148.956 22.8211 149.406 23.4751 149.606L26.5097 150.553L33.5311 146.123C33.8631 145.921 34.1664 146.03 33.9171 146.251L28.2284 151.385H28.2271L28.2284 151.386L28.0191 154.514C28.3257 154.514 28.4611 154.373 28.6331 154.207L30.1071 152.774L33.1731 155.038C33.7384 155.35 34.1444 155.19 34.2851 154.515L36.2977 145.03C36.5037 144.204 35.9824 143.83 35.4431 144.074Z" fill="#444444"/>
</g>
<circle cx="90" cy="92" r="20" fill="#FFC700"/>
<g clip-path="url(#clip4_11446_1558)">
<path d="M97.6671 88.6746C97.5765 88.3515 97.4 88.0589 97.1564 87.828C96.9059 87.59 96.5989 87.4197 96.2644 87.3333C95.0124 87.0033 89.9964 87.0033 89.9964 87.0033C87.9053 86.9795 85.8147 87.0842 83.7364 87.3166C83.4019 87.4094 83.0955 87.5835 82.8444 87.8233C82.5977 88.0606 82.4191 88.3533 82.3257 88.674C82.1015 89.8818 81.9926 91.1082 82.0004 92.3366C81.9924 93.564 82.1011 94.79 82.3257 95.9993C82.4171 96.3186 82.5951 96.61 82.8424 96.8453C83.0897 97.0806 83.3977 97.2506 83.7364 97.3406C85.0051 97.67 89.9964 97.67 89.9964 97.67C92.0902 97.6938 94.1835 97.5892 96.2644 97.3566C96.5989 97.2702 96.9059 97.1 97.1564 96.862C97.3999 96.6311 97.5762 96.3385 97.6664 96.0153C97.8965 94.8079 98.0083 93.581 98.0004 92.352C98.0177 91.1177 97.906 89.885 97.6671 88.674V88.6746ZM88.4017 94.6193V90.0546L92.5751 92.3373L88.4017 94.6193Z" fill="#444444"/>
</g>
<circle cx="150" cy="90" r="20" fill="#FFC700"/>
<path d="M152.7 83.1551C154.2 82.6551 155.3 83.4551 155.9 84.2551C156.4 84.0551 157 83.8551 157.6 83.6551C157.6 84.4551 157.1 85.0551 156.8 85.2551C157.5 85.4551 158 84.8551 158 84.8551C157.9 85.7551 157.1 86.5551 156.6 86.7551C156.4 93.0551 153.8 97.1551 147.7 97.0551C147.2 97.0551 147.8 97.0551 147.3 97.0551C147 97.0551 143.6 96.6551 143 95.2551C145 95.4551 146.4 94.8551 147.1 94.1551C146.3 93.8551 144.7 93.7551 144.5 91.3551C144.8 91.5551 145 91.6551 145.6 91.5551C144.5 90.7551 143.3 90.0551 143.4 88.0551C143.7 88.3551 144.3 88.5551 144.6 88.4551C144 88.2551 142.8 85.3551 143.8 83.8551C145.4 85.5551 147.1 87.2551 150.1 87.3551C150.3 85.2551 151.1 83.8551 152.7 83.1551Z" fill="#444444"/>
<circle cx="30" cy="90" r="20" fill="#FFC700"/>
<g clip-path="url(#clip5_11446_1558)">
<path d="M35.4431 84.0736L23.6231 88.6316C22.8164 88.9556 22.8211 89.4056 23.4751 89.6062L26.5097 90.5529L33.5311 86.1229C33.8631 85.9209 34.1664 86.0296 33.9171 86.2509L28.2284 91.3849H28.2271L28.2284 91.3856L28.0191 94.5136C28.3257 94.5136 28.4611 94.3729 28.6331 94.2069L30.1071 92.7736L33.1731 95.0382C33.7384 95.3496 34.1444 95.1896 34.2851 94.5149L36.2977 85.0296C36.5037 84.2036 35.9824 83.8296 35.4431 84.0736Z" fill="#444444"/>
</g>
<circle cx="150" cy="30" r="20" fill="white" fill-opacity="0.3"/>
<path d="M152.7 23.1551C154.2 22.6551 155.3 23.4551 155.9 24.2551C156.4 24.0551 157 23.8551 157.6 23.6551C157.6 24.4551 157.1 25.0551 156.8 25.2551C157.5 25.4551 158 24.8551 158 24.8551C157.9 25.7551 157.1 26.5551 156.6 26.7551C156.4 33.0551 153.8 37.1551 147.7 37.0551C147.2 37.0551 147.8 37.0551 147.3 37.0551C147 37.0551 143.6 36.6551 143 35.2551C145 35.4551 146.4 34.8551 147.1 34.1551C146.3 33.8551 144.7 33.7551 144.5 31.3551C144.8 31.5551 145 31.6551 145.6 31.5551C144.5 30.7551 143.3 30.0551 143.4 28.0551C143.7 28.3551 144.3 28.5551 144.6 28.4551C144 28.2551 142.8 25.3551 143.8 23.8551C145.4 25.5551 147.1 27.2551 150.1 27.3551C150.3 25.2551 151.1 23.8551 152.7 23.1551Z" fill="#444444"/>
<circle cx="90" cy="30" r="20" fill="white" fill-opacity="0.3"/>
<g clip-path="url(#clip6_11446_1558)">
<path d="M97.6671 26.6746C97.5765 26.3515 97.4 26.0589 97.1564 25.828C96.9059 25.59 96.5989 25.4197 96.2644 25.3333C95.0124 25.0033 89.9964 25.0033 89.9964 25.0033C87.9053 24.9795 85.8147 25.0842 83.7364 25.3166C83.4019 25.4094 83.0955 25.5835 82.8444 25.8233C82.5977 26.0606 82.4191 26.3533 82.3257 26.674C82.1015 27.8818 81.9926 29.1082 82.0004 30.3366C81.9924 31.564 82.1011 32.79 82.3257 33.9993C82.4171 34.3186 82.5951 34.61 82.8424 34.8453C83.0897 35.0806 83.3977 35.2506 83.7364 35.3406C85.0051 35.67 89.9964 35.67 89.9964 35.67C92.0902 35.6938 94.1835 35.5892 96.2644 35.3566C96.5989 35.2702 96.9059 35.1 97.1564 34.862C97.3999 34.6311 97.5762 34.3385 97.6664 34.0153C97.8965 32.8079 98.0083 31.581 98.0004 30.352C98.0177 29.1177 97.906 27.885 97.6671 26.674V26.6746ZM88.4017 32.6193V28.0546L92.5751 30.3373L88.4017 32.6193Z" fill="#444444"/>
</g>
<circle cx="30" cy="30" r="20" fill="white" fill-opacity="0.3"/>
<g clip-path="url(#clip7_11446_1558)">
<path d="M35.4431 24.0736L23.6231 28.6316C22.8164 28.9556 22.8211 29.4056 23.4751 29.6062L26.5097 30.5529L33.5311 26.1229C33.8631 25.9209 34.1664 26.0296 33.9171 26.2509L28.2284 31.3849H28.2271L28.2284 31.3856L28.0191 34.5136C28.3257 34.5136 28.4611 34.3729 28.6331 34.2069L30.1071 32.7736L33.1731 35.0382C33.7384 35.3496 34.1444 35.1896 34.2851 34.5149L36.2977 25.0296C36.5037 24.2036 35.9824 23.8296 35.4431 24.0736Z" fill="#444444"/>
</g>
<rect x="0.5" y="0.5" width="178" height="242" rx="4.5" stroke="#7B61FF" stroke-dasharray="10 5"/>
<defs>
<clipPath id="clip0_11446_1558">
<rect width="16" height="11" fill="white" transform="translate(82 205)"/>
</clipPath>
<clipPath id="clip1_11446_1558">
<rect width="14" height="12" fill="white" transform="translate(23 204)"/>
</clipPath>
<clipPath id="clip2_11446_1558">
<rect width="16" height="11" fill="white" transform="translate(82 145)"/>
</clipPath>
<clipPath id="clip3_11446_1558">
<rect width="14" height="12" fill="white" transform="translate(23 144)"/>
</clipPath>
<clipPath id="clip4_11446_1558">
<rect width="16" height="11" fill="white" transform="translate(82 87)"/>
</clipPath>
<clipPath id="clip5_11446_1558">
<rect width="14" height="12" fill="white" transform="translate(23 84)"/>
</clipPath>
<clipPath id="clip6_11446_1558">
<rect width="16" height="11" fill="white" transform="translate(82 25)"/>
</clipPath>
<clipPath id="clip7_11446_1558">
<rect width="14" height="12" fill="white" transform="translate(23 24)"/>
</clipPath>
</defs>
</svg>
